<svg width="24" height="24" viewBox="0 0 24 24" fill="none" xmlns="http://www.w3.org/2000/svg">
<rect width="24" height="24" fill="white"/>
<path fill-rule="evenodd" clip-rule="evenodd" d="M9.44973 8.25C9.79819 8.25 10.1118 8.28485 10.3906 8.35454C10.6693 8.42423 10.9132 8.52877 11.1223 8.66815C11.3314 8.80753 11.4708 9.01661 11.6102 9.22568C11.7147 9.4696 11.7844 9.74837 11.7844 10.0968C11.7844 10.4801 11.7147 10.7937 11.5405 11.0377C11.3662 11.2816 11.1223 11.4907 10.8087 11.6649C11.2617 11.8043 11.5753 12.0482 11.8192 12.3618C12.0283 12.7103 12.1328 13.0936 12.1328 13.5814C12.1328 13.9647 12.0632 14.2783 11.9238 14.5571C11.7844 14.8358 11.5753 15.0798 11.3314 15.254C11.0875 15.4282 10.8087 15.5676 10.4951 15.6373C10.1815 15.707 9.86788 15.7767 9.55427 15.7767H6V8.25H9.44973ZM9.24065 11.2816C9.51942 11.2816 9.76334 11.2119 9.93757 11.0726C10.1118 10.9332 10.2163 10.6893 10.2163 10.3756C10.2163 10.2014 10.1815 10.062 10.1118 9.9575C10.0421 9.85296 9.97241 9.74842 9.86788 9.67873C9.76334 9.60904 9.6588 9.5742 9.51942 9.53935C9.38004 9.5045 9.24065 9.5045 9.10127 9.5045H7.6029V11.2468H9.24065V11.2816ZM9.76334 14.4526C9.62396 14.4874 9.48457 14.4874 9.31034 14.4874V14.4526H7.6029V12.3967H9.34519C9.69365 12.3967 9.97241 12.4663 10.1815 12.6406C10.3906 12.8148 10.4951 13.0936 10.4951 13.4769C10.4951 13.6859 10.4603 13.8253 10.3906 13.9647C10.3557 14.1041 10.2512 14.2086 10.1466 14.2783C10.0421 14.3829 9.90272 14.4177 9.76334 14.4526ZM15.3387 14.7662C14.9205 14.7662 14.6069 14.6616 14.3978 14.4526C14.1887 14.2435 14.0145 13.8253 14.0145 13.4072H17.9869C18.0218 12.989 17.9869 12.5709 17.8824 12.1876C17.8127 11.8043 17.6385 11.4558 17.4294 11.1422C17.1855 10.8286 16.9416 10.5847 16.5931 10.4105C16.2446 10.2362 15.8613 10.1317 15.4083 10.1317C14.9902 10.1317 14.6417 10.2014 14.2933 10.3408C13.9448 10.4802 13.6661 10.6892 13.4221 10.9331C13.1782 11.1771 13.004 11.4907 12.8646 11.8391C12.7252 12.1876 12.6555 12.5709 12.6555 12.989C12.6555 13.4072 12.6904 13.7905 12.8298 14.139C12.9343 14.4874 13.1085 14.801 13.3525 15.0449C13.5615 15.2889 13.8403 15.4979 14.1887 15.6373C14.5024 15.7767 14.8857 15.8464 15.3038 15.8464C15.8962 15.8464 16.4189 15.707 16.837 15.4282C17.2552 15.1495 17.5688 14.6965 17.7779 14.0344H16.4886C16.4537 14.2086 16.3143 14.3829 16.1053 14.5223C15.8962 14.6965 15.6174 14.7662 15.3387 14.7662ZM15.2341 11.2816C15.6174 11.2816 15.8962 11.3861 16.0704 11.5952C16.2446 11.8043 16.3492 12.0831 16.3492 12.4664H13.9797C13.9797 12.3836 14.0015 12.3009 14.0279 12.2009C14.0348 12.1746 14.0421 12.147 14.0494 12.1179C14.0842 11.9785 14.1539 11.8391 14.2584 11.7346C14.363 11.5952 14.5024 11.4907 14.6417 11.421C14.816 11.3165 14.9902 11.2816 15.2341 11.2816ZM16.6976 8.73786H13.7358V9.46962H16.6976V8.73786Z" fill="black"/>
</svg>
