<svg width="24" height="24" viewBox="0 0 24 24" fill="none" xmlns="http://www.w3.org/2000/svg">
<rect width="24" height="24" fill="white"/>
<path fill-rule="evenodd" clip-rule="evenodd" d="M12 18C8.68235 18 6 15.3176 6 12C6 8.68235 8.68235 6 12 6C15.3176 6 18 8.68235 18 12C18 15.3176 15.3176 18 12 18ZM17.0471 12.8118C16.8706 12.7412 15.4588 12.353 13.8706 12.6001C14.5412 14.4353 14.8235 15.953 14.8588 16.2706C16.0235 15.4942 16.8353 14.2589 17.0471 12.8118ZM14.0118 16.7294C13.9412 16.2706 13.6235 14.7177 12.9176 12.8471H12.8824C9.98823 13.8706 8.96471 15.8471 8.85882 16.0588C9.74118 16.7294 10.8353 17.1529 12 17.1529C12.7059 17.1177 13.3765 16.9765 14.0118 16.7294ZM8.18822 15.4236C8.29411 15.2118 9.70587 12.8824 12.3529 12.0353C12.4235 12 12.4941 12 12.5647 11.9647C12.4235 11.6824 12.2823 11.3647 12.1412 11.0824C9.5647 11.8588 7.09411 11.8236 6.88234 11.8236C6.88234 11.8588 6.88234 11.9294 6.88234 11.9647C6.88234 13.3412 7.37646 14.5412 8.18822 15.4236ZM6.98824 10.9412C7.2 10.9412 9.31765 10.9412 11.7177 10.3059C10.8706 8.78827 9.95295 7.51768 9.81177 7.34121C8.40001 8.0471 7.30589 9.35298 6.98824 10.9412ZM10.8 7.02358C10.9412 7.20005 11.8588 8.47064 12.7059 10.0236C14.5412 9.35299 15.2823 8.29417 15.3882 8.18829C14.4706 7.37652 13.3059 6.8824 12 6.8824C11.5765 6.8824 11.1882 6.9177 10.8 7.02358ZM15.9529 8.75299C15.847 8.89416 15 9.98828 13.0941 10.7648C13.2 11.0118 13.3412 11.2589 13.447 11.5059C13.4823 11.6118 13.5176 11.6824 13.5529 11.753C15.247 11.5412 16.9412 11.8942 17.1176 11.9295C17.1176 10.7648 16.6941 9.63534 15.9529 8.75299Z" fill="black"/>
</svg>
