<svg width="20" height="23" viewBox="0 0 20 23" fill="none" xmlns="http://www.w3.org/2000/svg">
<path d="M4.65781 16.8257H2.60377V14.5683H12.1465C12.1828 14.5683 12.2143 14.5683 12.2418 14.5683C12.2854 14.5683 12.3169 14.5747 12.3354 14.5779C12.5995 14.6239 12.8389 14.7616 13.0112 14.9666C13.1495 15.1311 13.2379 15.3316 13.266 15.5445C13.2942 15.7574 13.2609 15.9739 13.1701 16.1686C13.0793 16.3633 12.9348 16.5281 12.7535 16.6437C12.5722 16.7592 12.3616 16.8207 12.1465 16.8209H4.65781V16.8257ZM0.530344 16.8257V23H12.157C14.0953 22.9957 15.9531 22.2249 17.3237 20.8563C18.6943 19.4876 19.4662 17.6326 19.4705 15.697C19.4705 15.1408 19.406 14.5864 19.2783 14.045C19.0648 13.1291 18.6751 12.2633 18.131 11.4957C18.8992 10.4025 19.3525 9.11989 19.4415 7.78737C19.5305 6.45486 19.2518 5.12349 18.6357 3.93815C18.0196 2.75282 17.0897 1.75891 15.9473 1.0646C14.8049 0.370277 13.4936 0.00213804 12.1562 0.000244141H0.529541V16.8257H0.530344ZM2.60377 6.17688H12.1465C12.4318 6.17345 12.7079 6.27789 12.9193 6.46923C13.1307 6.66057 13.2618 6.92467 13.2863 7.20852C13.3108 7.49238 13.2269 7.775 13.0515 7.99967C12.876 8.22434 12.622 8.37444 12.3403 8.41985C12.1215 8.41501 11.9002 8.41985 11.6782 8.43436H2.60457V6.17688H2.60377ZM2.60377 12.4978V10.5048H12.1473C12.199 10.5048 12.2531 10.5048 12.3088 10.5C12.8747 10.4494 13.4191 10.2591 13.8931 9.94622C14.3671 9.63336 14.7557 9.20775 15.0241 8.70768C15.2617 8.22013 15.3713 7.68031 15.3428 7.13885C15.3142 6.5974 15.1484 6.07207 14.8608 5.61214C14.5732 5.15222 14.1734 4.77277 13.6988 4.5094C13.2241 4.24603 12.6903 4.10738 12.1473 4.10644H2.60457V2.0731H12.1562C13.006 2.07352 13.8429 2.28016 14.5949 2.67525C15.3469 3.07033 15.9915 3.64201 16.4732 4.34106C16.9549 5.04012 17.2592 5.8456 17.3599 6.68815C17.4607 7.5307 17.3548 8.38508 17.0515 9.17772C16.685 10.1093 16.0356 10.9029 15.1945 11.4473L15.2647 11.4981C16.2721 12.2331 16.9822 13.3044 17.2663 14.5175C17.4415 15.2846 17.4417 16.0812 17.2668 16.8483C17.092 17.6155 16.7466 18.3336 16.2562 18.9494C15.7658 19.5652 15.1429 20.063 14.4338 20.4059C13.7246 20.7488 12.9473 20.928 12.1594 20.9303H2.60457V18.8962H12.1473C12.9504 18.8955 13.7239 18.5936 14.3146 18.0503C14.9053 17.507 15.2701 16.762 15.3366 15.9628C15.4032 15.1636 15.1666 14.3686 14.6739 13.7354C14.1811 13.1022 13.4681 12.6769 12.6762 12.5438C12.5785 12.5277 12.4897 12.5156 12.4121 12.5099C12.3217 12.5019 12.2329 12.4978 12.1473 12.4978H2.60377Z" fill="#000828"/>
</svg>
