<svg width="24" height="24" viewBox="0 0 24 24" fill="none" xmlns="http://www.w3.org/2000/svg">
<rect width="24" height="24" fill="white"/>
<path fill-rule="evenodd" clip-rule="evenodd" d="M18 8.6625C17.55 8.85 17.1 9 16.575 9.0375C17.1 8.7375 17.475 8.25 17.6625 7.6875C17.175 7.9875 16.65 8.175 16.0875 8.2875C15.6375 7.8 15 7.5 14.325 7.5C12.975 7.5 11.85 8.5875 11.85 9.975C11.85 10.1625 11.8875 10.35 11.925 10.5375C9.8625 10.425 8.0625 9.45 6.8625 7.95C6.6375 8.325 6.525 8.7375 6.525 9.1875C6.525 10.05 6.975 10.8 7.6125 11.25C7.2 11.25 6.825 11.1375 6.4875 10.95V10.9875C6.4875 12.1875 7.35 13.1625 8.475 13.3875C8.25 13.425 8.0625 13.4625 7.8375 13.4625C7.6875 13.4625 7.5375 13.4625 7.3875 13.425C7.6875 14.4 8.625 15.1125 9.675 15.15C8.85 15.825 7.7625 16.2 6.6 16.2C6.4125 16.2 6.1875 16.2 6 16.1625C7.0875 16.875 8.4 17.25 9.7875 17.25C14.325 17.25 16.8 13.5 16.8 10.2375C16.8 10.125 16.8 10.0125 16.8 9.9375C17.25 9.6 17.6625 9.15 18 8.6625Z" fill="black"/>
</svg>
